<svg xmlns="http://www.w3.org/2000/svg" width="673.764" height="448.411" viewBox="0 0 673.764 448.411">
  <defs>
    <style>
      .cls-1 {
        fill: #e6e6e6;
      }

      .cls-2 {
        fill: #3f3d56;
      }

      .cls-3 {
        fill: #d1b6bc;
      }

      .cls-4 {
        fill: #ffb8b8;
      }

      .cls-5 {
        fill: #2f2e41;
      }

      .cls-6 {
        fill: #d0cde1;
      }
    </style>
  </defs>
  <g id="undraw_manage_chats_ylx0" transform="translate(0 0)">
    <path id="Path_779" data-name="Path 779" class="cls-1" d="M673.236,244.49c-1.4-.047-2.825-.07-4.236-.07V243c1.428,0,2.868.024,4.283.071Z" transform="translate(-283.13 -165.759)"/>
    <path id="Path_780" data-name="Path 780" class="cls-1" d="M617.383,496.017c-1.909,0-3.833-.043-5.721-.128l.064-1.419c2.827.127,5.721.158,8.565.093l.032,1.42Q618.857,496.017,617.383,496.017Zm11.586-.523-.129-1.414c2.837-.258,5.7-.617,8.5-1.066l.225,1.4c-2.832.454-5.723.818-8.592,1.079Zm-25.94-.282c-2.862-.324-5.744-.75-8.567-1.267l.256-1.4c2.79.511,5.64.933,8.47,1.252Zm43.03-2.462-.32-1.384c2.769-.642,5.552-1.389,8.269-2.221l.416,1.358c-2.75.842-5.564,1.6-8.365,2.247ZM586,492.09c-2.784-.711-5.581-1.53-8.312-2.433l.445-1.348c2.7.892,5.466,1.7,8.22,2.405Zm76.611-4.408-.509-1.326c2.653-1.018,5.3-2.14,7.877-3.336l.6,1.288c-2.6,1.209-5.282,2.344-7.966,3.373Zm-93.06-1.03c-2.668-1.092-5.328-2.289-7.907-3.56l.627-1.274c2.55,1.256,5.18,2.44,7.818,3.519ZM678.3,480.395l-.685-1.244c2.489-1.373,4.962-2.848,7.349-4.386l.77,1.194c-2.414,1.555-4.915,3.047-7.433,4.436ZM554,479c-2.491-1.447-4.961-3-7.341-4.607l.8-1.176c2.353,1.592,4.8,3.125,7.258,4.556Zm138.838-7.975-.849-1.138c2.28-1.7,4.529-3.5,6.686-5.348l.925,1.077c-2.182,1.871-4.457,3.692-6.762,5.41Zm-153.187-1.731c-2.265-1.769-4.5-3.641-6.642-5.563l.948-1.057c2.118,1.9,4.328,3.75,6.568,5.5Zm166.327-9.537-1-1.012c2.027-1.994,4.012-4.083,5.9-6.21l1.062.943c-1.909,2.151-3.916,4.263-5.966,6.28ZM526.768,457.73c-2.005-2.063-3.964-4.22-5.823-6.412l1.083-.918c1.837,2.167,3.775,4.3,5.757,6.34ZM717.475,446.8l-1.123-.868c1.736-2.248,3.419-4.589,5-6.956l1.18.789c-1.6,2.395-3.3,4.762-5.059,7.036Zm-201.9-2.276c-1.706-2.315-3.352-4.718-4.894-7.141l1.2-.763c1.524,2.4,3.152,4.772,4.839,7.062ZM727.1,432.4l-1.231-.706c1.416-2.47,2.763-5.019,4-7.579l1.277.62c-1.256,2.589-2.618,5.168-4.051,7.665Zm-220.812-2.472c-1.373-2.524-2.675-5.129-3.87-7.74l1.291-.591c1.182,2.581,2.469,5.156,3.827,7.652Zm228.376-13.12-1.317-.53c1.063-2.642,2.047-5.354,2.926-8.062l1.351.438c-.888,2.74-1.884,5.483-2.959,8.154Zm-235.575-2.6c-1.015-2.691-1.948-5.452-2.774-8.206l1.36-.408c.816,2.722,1.739,5.451,2.742,8.113Zm240.919-13.878-1.378-.344c.688-2.759,1.289-5.577,1.785-8.375l1.4.248c-.5,2.829-1.109,5.679-1.8,8.471Zm-245.891-2.7c-.634-2.8-1.178-5.667-1.617-8.508l1.4-.217c.434,2.81.972,5.64,1.6,8.412Zm248.916-14.339-1.412-.152c.3-2.823.512-5.7.623-8.54l1.419.055C743.549,377.522,743.337,380.427,743.031,383.282Zm-251.563-2.767c-.243-2.86-.392-5.77-.442-8.649l1.42-.024c.049,2.847.2,5.724.437,8.553Zm250.816-14.489c-.08-2.845-.259-5.721-.532-8.547l1.413-.137c.276,2.858.457,5.766.539,8.643Zm-1.645-17.037c-.468-2.809-1.038-5.633-1.7-8.394l1.381-.329c.665,2.792,1.242,5.649,1.715,8.49Zm-3.965-16.65c-.847-2.711-1.8-5.427-2.83-8.071l1.323-.516c1.043,2.675,2.006,5.422,2.862,8.164Zm-6.212-15.931c-1.213-2.572-2.531-5.133-3.915-7.61l1.24-.693c1.4,2.506,2.732,5.1,3.959,7.7ZM722.12,301.47c-1.555-2.384-3.211-4.742-4.919-7.007l1.133-.855c1.728,2.291,3.4,4.675,4.976,7.086Zm-10.307-13.663c-1.862-2.148-3.823-4.259-5.828-6.275l1.007-1c2.028,2.039,4.011,4.175,5.895,6.346Zm-12.072-12.139c-2.141-1.877-4.371-3.7-6.63-5.426l.861-1.129c2.284,1.743,4.54,3.589,6.7,5.487Zm-13.614-10.389c-2.378-1.569-4.837-3.074-7.31-4.472l.7-1.236c2.5,1.415,4.988,2.937,7.393,4.524Zm-14.911-8.433c-2.569-1.229-5.212-2.382-7.856-3.429l.523-1.32c2.674,1.059,5.348,2.226,7.946,3.468Zm-15.931-6.308c-2.709-.861-5.484-1.639-8.246-2.312l.336-1.38c2.794.68,5.6,1.467,8.34,2.338Zm-16.632-4.049c-2.8-.48-5.654-.869-8.485-1.157l.144-1.413c2.863.291,5.75.685,8.581,1.17Z" transform="translate(-231.513 -166.026)"/>
    <path id="Path_781" data-name="Path 781" class="cls-1" d="M492.66,409.966l-1.418-.073c.074-1.432.173-2.869.294-4.273l1.414.121C492.831,407.129,492.734,408.551,492.66,409.966Z" transform="translate(-231.575 -212.923)"/>
    <path id="Path_782" data-name="Path 782" class="cls-2" d="M549.536,564.333H191V404.589l179.268,80.582,179.268-80.582Z" transform="translate(-55.395 -117.342)"/>
    <path id="Path_783" data-name="Path 783" class="cls-3" d="M191,404.589H549.536l-178.913,92.3Z" transform="translate(-55.395 -117.342)"/>
    <circle id="Ellipse_269" data-name="Ellipse 269" class="cls-1" cx="14.909" cy="14.909" r="14.909" transform="translate(300.318 364.634)"/>
    <path id="Path_784" data-name="Path 784" class="cls-2" d="M189.29,689.352c-.163-.266-4-6.681-5.337-20-1.222-12.221-.436-32.82,10.247-61.553,20.238-54.434-4.664-98.355-4.919-98.792l1.229-.713c.064.111,6.49,11.309,10.286,29.14a127.128,127.128,0,0,1-5.265,70.86c-20.2,54.341-5.183,80.066-5.029,80.32Z" transform="translate(-142.328 -242.701)"/>
    <circle id="Ellipse_270" data-name="Ellipse 270" class="cls-3" cx="9.23" cy="9.23" r="9.23" transform="translate(29.819 244.649)"/>
    <circle id="Ellipse_271" data-name="Ellipse 271" class="cls-3" cx="9.23" cy="9.23" r="9.23" transform="translate(58.928 278.728)"/>
    <circle id="Ellipse_272" data-name="Ellipse 272" class="cls-3" cx="9.23" cy="9.23" r="9.23" transform="translate(39.049 301.447)"/>
    <circle id="Ellipse_273" data-name="Ellipse 273" class="cls-3" cx="9.23" cy="9.23" r="9.23" transform="translate(63.188 320.616)"/>
    <circle id="Ellipse_274" data-name="Ellipse 274" class="cls-3" cx="9.23" cy="9.23" r="9.23" transform="translate(31.949 350.435)"/>
    <path id="Path_785" data-name="Path 785" class="cls-2" d="M198.9,747.552s-9.23-22.719,18.459-39.758Z" transform="translate(-146.359 -300.562)"/>
    <path id="Path_786" data-name="Path 786" class="cls-2" d="M168.515,753.429s-4.2-24.16-36.712-23.953Z" transform="translate(-127.328 -306.85)"/>
    <path id="Path_787" data-name="Path 787" class="cls-2" d="M370.678,249.962a86.947,86.947,0,0,1,18.485-53.731,87.325,87.325,0,1,0,11.3,170.345,106.557,106.557,0,0,0,52.571,8.341l-27.9-19.852a87.813,87.813,0,0,0,20.056-18.715,87.344,87.344,0,0,1-74.513-86.388Z" transform="translate(-172.951 -151.923)"/>
    <path id="Path_788" data-name="Path 788" class="cls-3" d="M619.2,223.619a87.328,87.328,0,0,0-156.168-53.731,87.324,87.324,0,0,1,56.028,140.119,87.89,87.89,0,0,0,36.921-2.434,106.557,106.557,0,0,0,52.571,8.342l-27.9-19.852A87.239,87.239,0,0,0,619.2,223.619Z" transform="translate(-223.395 -134.809)"/>
    <path id="Path_789" data-name="Path 789" class="cls-1" d="M438.485,189.614a87.335,87.335,0,0,0,56.028,140.119,87.324,87.324,0,0,0-56.028-140.119Z" transform="translate(-210.913 -150.275)"/>
    <rect id="Rectangle_1481" data-name="Rectangle 1481" class="cls-2" width="673.764" height="1.42" transform="translate(0 446.991)"/>
    <path id="Path_790" data-name="Path 790" class="cls-4" d="M900.541,294.753l-4.212,28.031-48.14,32.561s-25.311,12.128-23.718,19.664c1.42,6.717,20.952,5.922,27.1-4.465l57.555-26.165,19.249-38.107Z" transform="translate(-328.2 -180.769)"/>
    <path id="Path_791" data-name="Path 791" class="cls-4" d="M806.5,558.589l2.13,29.819,20.589-1.42-3.55-28.4Z" transform="translate(-233.907 -162.006)"/>
    <path id="Path_792" data-name="Path 792" class="cls-5" d="M922.437,717.72s-2.84-10.65-5.68-9.94l-4.26,7.81s-19.169,17.749-24.849,18.459c0,0-18.459,5.68,0,14.2h21.3s14.2-.71,17.039,0,19.169.71,19.879-3.55-2.13-12.78-2.13-12.78-2.618-20.946-5.569-16.863a55.751,55.751,0,0,1-5.081,6.213Z" transform="translate(-344.164 -300.548)"/>
    <path id="Path_793" data-name="Path 793" class="cls-4" d="M881.5,559.089l2.13,29.819,20.589-1.42-3.55-28.4Z" transform="translate(-255.659 -162.151)"/>
    <path id="Path_794" data-name="Path 794" class="cls-5" d="M997.437,718.22s-2.84-10.65-5.68-9.94l-4.26,7.81s-19.169,17.749-24.849,18.459c0,0-18.459,5.68,0,14.2h21.3s14.2-1.42,17.039-.71,19.169.71,19.879-3.55-2.13-12.07-2.13-12.07-2.618-20.946-5.569-16.863a55.731,55.731,0,0,1-5.081,6.213Z" transform="translate(-365.916 -300.693)"/>
    <path id="Path_795" data-name="Path 795" class="cls-5" d="M891.55,434.65l-3.55,4.97v9.94l22.719,84.487,4.26,18.459s0,71,4.26,71,23.429,2.13,23.429-2.13-1.42-100.816-1.42-100.816l19.169,36.209s8.52,63.9,11.36,64.607,22.719,0,24.139-4.26l-4.26-40.468s.71-45.438-11.359-55.378c0,0-2.13-12.07-4.26-17.039s-5.68-7.81-3.55-11.36-2.84-42.6-2.84-42.6,1.42-12.07-1.42-15.619S891.55,434.65,891.55,434.65Z" transform="translate(-346.646 -220.885)"/>
    <circle id="Ellipse_275" data-name="Ellipse 275" class="cls-4" cx="22.009" cy="22.009" r="22.009" transform="translate(568.333 8.583)"/>
    <path id="Path_796" data-name="Path 796" class="cls-4" d="M963.449,194.634l-1.42,14.2,5.68,4.97L931.5,230.842c8.919-15.239,11.561-29.114,7.1-39.048Z" transform="translate(-359.262 -150.908)"/>
    <path id="Path_797" data-name="Path 797" class="cls-6" d="M926.129,222.894s-5.68,11.36,1.42,8.52l22.009-15.619s24.139,9.23,32.659,19.879l-7.1,75.257-5.68,53.248s3.55,6.39,2.84,7.1-1.42-.71-.71,1.42,2.84,0,.71,2.13-4.26,0-2.13,2.13,0,2.84,0,2.84-2.84-17.039-27.689-4.26-35.5,16.329-53.958.71l21.3-80.937,1.72-30.526a125.738,125.738,0,0,1,5.4-30.042c1.628-5.27,4.465-10.45,9.206-13.269Z" transform="translate(-346.791 -157.868)"/>
    <path id="Path_798" data-name="Path 798" class="cls-4" d="M987.853,311.554l10.65,26.269-24.849,52.538s-5.68,6.39-2.13,14.2a93.836,93.836,0,0,0,6.39,12.07s6.39-2.84,6.39-14.909l36.209-51.828-2.84-42.6Z" transform="translate(-370.531 -184.406)"/>
    <path id="Path_799" data-name="Path 799" class="cls-6" d="M990.246,245.826a27.134,27.134,0,0,0-5.68,25.559c4.26,15.619,7.81,27.689,7.81,27.689s17.039-12.78,31.239-4.97c0,0-2.13-46.148-14.2-50.408S990.246,245.826,990.246,245.826Z" transform="translate(-374.345 -165.536)"/>
    <path id="Path_800" data-name="Path 800" class="cls-5" d="M965.923,145.917s-6.724-14.57-19.613-11.207-20.173,8.406-20.734,13.449a71.965,71.965,0,0,0,.28,12.608s1.4-10.367,10.367-8.125,22.975.56,22.975.56l2.242,20.173s3.822-4.074,6.624-1.833S974.89,150.4,965.923,145.917Z" transform="translate(-357.488 -134.206)"/>
    <path id="Path_801" data-name="Path 801" class="cls-2" d="M825.1,372.446h0l13.1-3.035a2.859,2.859,0,0,1,3.221,1.544l13.423,27.835a2.311,2.311,0,0,1-1.45,3.227L840.076,405.8a3.053,3.053,0,0,1-3.639-1.73l-8.565-19.894-.261.145-1.63-3.769.271-.139-2.391-5.553a1.761,1.761,0,0,1,1.234-2.415Z" transform="translate(-328.002 -202.4)"/>
    <path id="Path_802" data-name="Path 802" class="cls-3" d="M837.179,370.73l1.53-.354a1.976,1.976,0,0,1,2.232,1.079l13.1,27.657a1.224,1.224,0,0,1-.753,1.7l-13.224,3.99a1.586,1.586,0,0,1-1.915-.892l-12.4-28.852a1.389,1.389,0,0,1,.963-1.9l1.451-.336a.656.656,0,0,1,.726.33h0a.579.579,0,0,0,.641.291l6.889-1.6a.989.989,0,0,0,.755-1.112Z" transform="translate(-328.56 -202.687)"/>
  </g>
</svg>
