<svg xmlns="http://www.w3.org/2000/svg" width="668.62" height="492.326" viewBox="0 0 668.62 492.326">
  <defs>
    <style>
      .cls-1 {
        fill: #fff;
      }

      .cls-2 {
        fill: #3f3d56;
      }

      .cls-3 {
        fill: #f2f2f2;
      }

      .cls-4 {
        fill: #d1b6bc;
      }

      .cls-5 {
        fill: #ffb8b8;
      }

      .cls-6 {
        fill: #ccc;
      }

      .cls-7 {
        fill: #2f2e41;
      }

      .cls-8 {
        fill: #beb3b7;
      }
    </style>
  </defs>
  <g id="undraw_Team_chat_re_vbq1" transform="translate(0 0)">
    <path id="Path_686" data-name="Path 686" class="cls-1" d="M721.475,311.013H491.1A13.83,13.83,0,0,1,477.283,297.2V161.3a10.343,10.343,0,0,1,10.332-10.332H724.792a10.509,10.509,0,0,1,10.5,10.5V297.2A13.83,13.83,0,0,1,721.475,311.013Z" transform="translate(-239.846 -140.86)"/>
    <path id="Path_687" data-name="Path 687" class="cls-2" d="M721.475,311.013H491.1A13.83,13.83,0,0,1,477.283,297.2V161.3a10.343,10.343,0,0,1,10.332-10.332H724.792a10.509,10.509,0,0,1,10.5,10.5V297.2A13.83,13.83,0,0,1,721.475,311.013ZM487.615,152.548a8.763,8.763,0,0,0-8.753,8.753V297.2A12.249,12.249,0,0,0,491.1,309.435H721.475A12.25,12.25,0,0,0,733.71,297.2V161.466a8.928,8.928,0,0,0-8.918-8.918Z" transform="translate(-239.846 -140.86)"/>
    <path id="Path_688" data-name="Path 688" class="cls-3" d="M507.413,303.031H712.53a12.63,12.63,0,0,0,12.63-12.63V191.293a12.63,12.63,0,0,0-12.63-12.63H507.413a12.63,12.63,0,0,0-12.63,12.63V290.4A12.63,12.63,0,0,0,507.413,303.031Z" transform="translate(-243.531 -146.693)"/>
    <path id="Path_689" data-name="Path 689" class="cls-4" d="M735.482,157.859H476.559v-6.631a13.156,13.156,0,0,1,13.216-13.064h232.49a13.156,13.156,0,0,1,13.216,13.064Z" transform="translate(-239.693 -138.163)"/>
    <circle id="Ellipse_248" data-name="Ellipse 248" class="cls-1" cx="3.381" cy="3.381" r="3.381" transform="translate(258.42 6.486)"/>
    <circle id="Ellipse_249" data-name="Ellipse 249" class="cls-1" cx="3.381" cy="3.381" r="3.381" transform="translate(271.255 6.486)"/>
    <circle id="Ellipse_250" data-name="Ellipse 250" class="cls-1" cx="3.381" cy="3.381" r="3.381" transform="translate(284.09 6.486)"/>
    <path id="Path_690" data-name="Path 690" class="cls-4" d="M550.083,276.537a26.05,26.05,0,1,1,26.05-26.05A26.05,26.05,0,0,1,550.083,276.537Z" transform="translate(-249.691 -156.333)"/>
    <path id="Path_691" data-name="Path 691" class="cls-2" d="M720.73,281.067H619.91a6.464,6.464,0,0,1-6.524-5.883,6.322,6.322,0,0,1,6.3-6.748H720.479a6.483,6.483,0,0,1,6.553,5.909,6.322,6.322,0,0,1-6.3,6.721Z" transform="translate(-268.506 -165.599)"/>
    <path id="Path_692" data-name="Path 692" class="cls-2" d="M667.84,247.067H619.91a6.464,6.464,0,0,1-6.524-5.883,6.322,6.322,0,0,1,6.3-6.748h47.9a6.483,6.483,0,0,1,6.553,5.909,6.322,6.322,0,0,1-6.3,6.721Z" transform="translate(-268.506 -158.439)"/>
    <path id="Path_693" data-name="Path 693" class="cls-5" d="M930.822,580.35a7.938,7.938,0,0,0-6.181-10.486l-4.76-27.8-10.7,10.019,6.16,24.868a7.981,7.981,0,0,0,15.481,3.4Z" transform="translate(-330.804 -223.225)"/>
    <path id="Path_694" data-name="Path 694" class="cls-6" d="M917.446,548.075l-10.505,2.757a1.982,1.982,0,0,1-2.4-1.372l-18.878-66.886-5.7-17.063a10.277,10.277,0,0,1,10.978-13.461h0a10.27,10.27,0,0,1,8.623,7.286l15.085,50.99,4.259,35.606a1.982,1.982,0,0,1-1.038,1.979A1.948,1.948,0,0,1,917.446,548.075Z" transform="translate(-324.539 -204.253)"/>
    <circle id="Ellipse_251" data-name="Ellipse 251" class="cls-5" cx="19.388" cy="19.388" r="19.388" transform="translate(535.126 197.737)"/>
    <path id="Path_695" data-name="Path 695" class="cls-5" d="M627.662,600.417l-9.276-2.76,6.232-37.092,13.69,4.073Z" transform="translate(-130.234 -118.056)"/>
    <path id="Path_696" data-name="Path 696" class="cls-7" d="M798.266,756.7l-29.909-8.9.113-.378a12.146,12.146,0,0,1,15.105-8.178h0l18.268,5.435Z" transform="translate(-301.146 -264.646)"/>
    <path id="Path_697" data-name="Path 697" class="cls-5" d="M755.065,600.488h-9.678l-4.6-37.329h9.547Z" transform="translate(-156.011 -118.603)"/>
    <path id="Path_698" data-name="Path 698" class="cls-7" d="M930.177,757.149H898.972v-.395a12.146,12.146,0,0,1,12.146-12.146h19.06Z" transform="translate(-328.654 -265.882)"/>
    <path id="Path_699" data-name="Path 699" class="cls-7" d="M807.429,691.5h-9.717a3.553,3.553,0,0,1-3.494-4.194c-6.2-2.757,27.168-162.762,35.051-159.66l.259-.374,39.7,3.239c17.78,35.586,29.036,94.47,39.567,155.941a3.552,3.552,0,0,1-3.271,4.422l-10.918.53a3.536,3.536,0,0,1-3.471-2.229L849.3,584.6a1.131,1.131,0,0,0-1.126-.744,1.161,1.161,0,0,0-1.091.795l-36.3,104.459a3.555,3.555,0,0,1-3.356,2.386Z" transform="translate(-306.432 -220.109)"/>
    <path id="Path_700" data-name="Path 700" class="cls-6" d="M879.136,516.29l-.3-.022-42.265-3.19,7.413-47.15a24.687,24.687,0,0,1,21.094-20.694h0q.487-.068.981-.133a24.393,24.393,0,0,1,22.171,8.873,24.7,24.7,0,0,1,4.227,23.815Z" transform="translate(-315.512 -202.761)"/>
    <path id="Path_701" data-name="Path 701" class="cls-7" d="M912.746,427.831c-13.332,6.1-31.421,5.007-52.1,0,2.862-7.838,5.092-15.409,2.562-20.967a16.927,16.927,0,0,1-.555-13.549A26.058,26.058,0,0,1,886.7,377.31h0a26.05,26.05,0,0,1,26.05,26.05Z" transform="translate(-320.583 -188.528)"/>
    <path id="Path_702" data-name="Path 702" class="cls-7" d="M688.3,241.392H704.88v20.386H670.146v-2.23A18.156,18.156,0,0,1,688.3,241.392Z" transform="translate(-141.134 -50.838)"/>
    <path id="Path_703" data-name="Path 703" class="cls-5" d="M831.833,585.728a7.938,7.938,0,0,0-.547-12.16l8.825-26.793-14.148,3.836-6.212,24.855a7.981,7.981,0,0,0,12.081,10.261Z" transform="translate(-311.69 -224.218)"/>
    <path id="Path_704" data-name="Path 704" class="cls-6" d="M832.125,550.575l-10.572-2.488a1.982,1.982,0,0,1-1.477-2.337l14.668-67.934,2.958-17.746a10.277,10.277,0,0,1,16.006-6.747h0a10.27,10.27,0,0,1,4.2,10.478l-10.569,52.114-12.924,33.45a1.982,1.982,0,0,1-1.844,1.262A1.936,1.936,0,0,1,832.125,550.575Z" transform="translate(-312.029 -204.149)"/>
    <path id="Path_705" data-name="Path 705" class="cls-6" d="M942.05,761.416H641.289a.789.789,0,1,1,0-1.579H942.05a.789.789,0,1,1,0,1.579Z" transform="translate(-274.219 -269.089)"/>
    <path id="Path_706" data-name="Path 706" class="cls-5" d="M298.079,514.341a8.318,8.318,0,0,0-1.238.424l-32.9-21.222.454-9.5-14.247-2.559-2.438,16.74a6.315,6.315,0,0,0,3.627,6.655l40.517,18.5a8.286,8.286,0,1,0,6.223-9.033Z" transform="translate(-191.484 -210.467)"/>
    <path id="Path_707" data-name="Path 707" class="cls-2" d="M261.108,487.249l-17.643-3.257a3.552,3.552,0,0,1-2.716-4.643l5.79-16.924a9.865,9.865,0,1,1,19.392,3.639l-.628,17.818a3.552,3.552,0,0,1-4.195,3.367Z" transform="translate(-189.991 -204.759)"/>
    <path id="Path_708" data-name="Path 708" class="cls-8" d="M617.59,433.857H316.83a14.912,14.912,0,0,0-7.389,1.95,14.623,14.623,0,0,0-1.555,1.018,14.97,14.97,0,0,0-6.055,12.03v156.3a15.012,15.012,0,0,0,15,15H617.59a15.012,15.012,0,0,0,15-15v-156.3A15.012,15.012,0,0,0,617.59,433.857Z" transform="translate(-202.895 -200.437)"/>
    <path id="Path_709" data-name="Path 709" class="cls-2" d="M617.59,433.857H316.83a14.912,14.912,0,0,0-7.389,1.95,14.623,14.623,0,0,0-1.555,1.018,14.97,14.97,0,0,0-6.055,12.03v156.3a15.012,15.012,0,0,0,15,15H617.59a15.012,15.012,0,0,0,15-15v-156.3A15.012,15.012,0,0,0,617.59,433.857Zm13.42,171.3a13.439,13.439,0,0,1-13.42,13.42H316.83a13.439,13.439,0,0,1-13.42-13.42v-156.3a13.494,13.494,0,0,1,9.3-12.772c.111-.032.213-.071.324-.1a13.419,13.419,0,0,1,3.8-.545H617.59a13.439,13.439,0,0,1,13.42,13.42Z" transform="translate(-202.895 -200.437)"/>
    <path id="Path_710" data-name="Path 710" class="cls-2" d="M467.972,528.069a7.094,7.094,0,0,1-3.425-.883l-157.124-86.48a.789.789,0,1,1,.761-1.383L465.309,525.8a5.511,5.511,0,0,0,5.243.046L630.262,441.6a.789.789,0,1,1,.737,1.4L471.288,527.246A7.1,7.1,0,0,1,467.972,528.069Z" transform="translate(-203.987 -201.568)"/>
    <path id="Path_711" data-name="Path 711" class="cls-2" d="M357.815,616.486h-22.1a6.315,6.315,0,0,1,0-12.63h22.1a6.315,6.315,0,0,1,0,12.63Z" transform="translate(-208.7 -236.239)"/>
    <path id="Path_712" data-name="Path 712" class="cls-2" d="M383.865,643.486H335.712a6.315,6.315,0,0,1,0-12.63h48.153a6.315,6.315,0,0,1,0,12.63Z" transform="translate(-208.7 -241.926)"/>
    <circle id="Ellipse_252" data-name="Ellipse 252" class="cls-4" cx="25.261" cy="25.261" r="25.261" transform="translate(238.662 301.308)"/>
    <path id="Path_713" data-name="Path 713" class="cls-3" d="M365.518,451.872l111.324,46.446a1.579,1.579,0,0,0,1.2.006l114.772-46.446a1.579,1.579,0,0,0-.592-3.042h-226.1a1.579,1.579,0,0,0-.608,3.036Z" transform="translate(-216.103 -203.592)"/>
    <path id="Path_714" data-name="Path 714" class="cls-5" d="M330.668,436.163a8.311,8.311,0,0,0-.189,1.295l-33.911,19.563-8.242-4.745-8.787,11.5,13.775,9.818a6.315,6.315,0,0,0,7.577-.185l34.968-27.586a8.286,8.286,0,1,0-5.191-9.663Z" transform="translate(-198.2 -199.576)"/>
    <path id="Path_715" data-name="Path 715" class="cls-2" d="M290.991,461.185l-10.96,14.2a3.552,3.552,0,0,1-5.371.294L262.253,462.8a9.865,9.865,0,1,1,12.1-15.586l15.561,8.7a3.552,3.552,0,0,1,1.078,5.27Z" transform="translate(-193.756 -202.813)"/>
    <circle id="Ellipse_253" data-name="Ellipse 253" class="cls-5" cx="19.388" cy="19.388" r="19.388" transform="translate(32.965 185.679)"/>
    <path id="Path_716" data-name="Path 716" class="cls-5" d="M89.5,601.488h9.678l4.6-37.329H89.5Z" transform="translate(-18.85 -118.813)"/>
    <path id="Path_717" data-name="Path 717" class="cls-7" d="M262.878,745.608h19.06a12.146,12.146,0,0,1,12.146,12.146v.394H262.879Z" transform="translate(-194.691 -266.092)"/>
    <path id="Path_718" data-name="Path 718" class="cls-5" d="M47.5,601.488h9.678l4.6-37.329H47.5Z" transform="translate(-10.004 -118.813)"/>
    <path id="Path_719" data-name="Path 719" class="cls-7" d="M220.878,745.608h19.06a12.146,12.146,0,0,1,12.146,12.146v.394H220.879Z" transform="translate(-185.846 -266.092)"/>
    <path id="Path_720" data-name="Path 720" class="cls-7" d="M252.892,697.9l-9.872-76.377a.388.388,0,0,0-.4-.369.375.375,0,0,0-.389.38L239.4,696.8a3.541,3.541,0,0,1-3.55,3.419H224.123a3.532,3.532,0,0,1-3.551-3.467l-3.043-125.408,52.46.524,1.31,125.811a3.555,3.555,0,0,1-1.246,2.621,3.5,3.5,0,0,1-2.731.821l-11.368.032a3.556,3.556,0,0,1-3.061-3.256Z" transform="translate(-185.141 -229.393)"/>
    <path id="Path_721" data-name="Path 721" class="cls-2" d="M215.293,544.881a3.55,3.55,0,0,1-2.242-2.787l-.524-68.922c-2.318-15.345-5.061-30.383,8.356-38.158l1.182-3.547a1.982,1.982,0,0,1,1.816-1.349l25.452-.727a1.957,1.957,0,0,1,1.87,1.195L253.1,435l.672.383A37.427,37.427,0,0,1,272.4,472.339l-1.455,12.287-1.034,57.419a3.583,3.583,0,0,1-1.865,3.068c-7.394,4.049-15.586,5.433-23.337,5.433A87.421,87.421,0,0,1,215.293,544.881Z" transform="translate(-183.682 -199.497)"/>
    <path id="Path_722" data-name="Path 722" class="cls-7" d="M236.383,411.441a20.686,20.686,0,1,1,3.876-40.911c4.264-2.589,9.221-4.331,14.189-3.888s9.882,3.393,11.74,8.022-.138,10.731-4.758,12.612c-2.962,1.206-6.306.621-9.467.135s-6.609-.8-9.359.827-3.987,6-1.524,8.043a8.477,8.477,0,0,1,2.435,9.331C242.277,408.815,238.9,411.386,236.383,411.441Z" transform="translate(-184.661 -186.267)"/>
    <path id="Path_723" data-name="Path 723" class="cls-6" d="M300.435,761.416H177.289a.789.789,0,1,1,0-1.579H300.435a.789.789,0,1,1,0,1.579Z" transform="translate(-176.5 -269.089)"/>
  </g>
</svg>
