<svg xmlns="http://www.w3.org/2000/svg" width="855.218" height="516.458" viewBox="0 0 855.218 516.458">
  <defs>
    <style>
      .cls-1 {
        fill: #3f3d56;
      }

      .cls-2, .cls-4, .cls-9 {
        fill: #d1b6bc;
      }

      .cls-3, .cls-4, .cls-8 {
        opacity: 0.1;
      }

      .cls-5 {
        fill: #a1616a;
      }

      .cls-6 {
        fill: #454b69;
      }

      .cls-7 {
        fill: #fff;
      }

      .cls-9 {
        opacity: 0.5;
      }
    </style>
  </defs>
  <g id="Group_18" data-name="Group 18" transform="translate(-207 -293.275)">
    <ellipse id="Ellipse_305" data-name="Ellipse 305" class="cls-1" cx="16.909" cy="22.132" rx="16.909" ry="22.132" transform="translate(393.374 749.695)"/>
    <ellipse id="Ellipse_306" data-name="Ellipse 306" class="cls-1" cx="16.909" cy="22.132" rx="16.909" ry="22.132" transform="translate(393.374 722.641)"/>
    <ellipse id="Ellipse_307" data-name="Ellipse 307" class="cls-1" cx="16.909" cy="22.132" rx="16.909" ry="22.132" transform="translate(393.374 695.586)"/>
    <ellipse id="Ellipse_308" data-name="Ellipse 308" class="cls-1" cx="16.909" cy="22.132" rx="16.909" ry="22.132" transform="translate(393.374 668.532)"/>
    <ellipse id="Ellipse_309" data-name="Ellipse 309" class="cls-1" cx="16.909" cy="22.132" rx="16.909" ry="22.132" transform="translate(393.374 641.478)"/>
    <ellipse id="Ellipse_310" data-name="Ellipse 310" class="cls-1" cx="16.909" cy="22.132" rx="16.909" ry="22.132" transform="translate(393.374 614.423)"/>
    <ellipse id="Ellipse_311" data-name="Ellipse 311" class="cls-1" cx="16.909" cy="22.132" rx="16.909" ry="22.132" transform="translate(393.374 587.369)"/>
    <ellipse id="Ellipse_312" data-name="Ellipse 312" class="cls-1" cx="9.394" cy="12.295" rx="9.394" ry="12.295" transform="translate(541.422 766.296)"/>
    <ellipse id="Ellipse_313" data-name="Ellipse 313" class="cls-1" cx="9.394" cy="12.295" rx="9.394" ry="12.295" transform="translate(541.422 751.266)"/>
    <ellipse id="Ellipse_314" data-name="Ellipse 314" class="cls-1" cx="9.394" cy="12.295" rx="9.394" ry="12.295" transform="translate(541.422 736.236)"/>
    <ellipse id="Ellipse_315" data-name="Ellipse 315" class="cls-1" cx="9.394" cy="12.295" rx="9.394" ry="12.295" transform="translate(541.422 721.206)"/>
    <ellipse id="Ellipse_316" data-name="Ellipse 316" class="cls-1" cx="9.394" cy="12.295" rx="9.394" ry="12.295" transform="translate(541.422 706.175)"/>
    <ellipse id="Ellipse_317" data-name="Ellipse 317" class="cls-1" cx="9.394" cy="12.295" rx="9.394" ry="12.295" transform="translate(541.422 691.145)"/>
    <ellipse id="Ellipse_318" data-name="Ellipse 318" class="cls-1" cx="9.394" cy="12.295" rx="9.394" ry="12.295" transform="translate(541.422 676.115)"/>
    <path id="Path_926" data-name="Path 926" class="cls-2" d="M325.9,252.3a82.007,82.007,0,0,0,6.3-9.266l-44.422-7.3,48.052.353a81.163,81.163,0,0,0,1.548-64.171L272.9,205.357l59.444-43.723a81,81,0,1,0-133.769,90.647,81.1,81.1,0,0,0-9.251,14.79L247,297.034,185.516,276.39a81.02,81.02,0,0,0,13.061,76.06,80.99,80.99,0,1,0,127.321,0A81.02,81.02,0,0,0,325.9,252.3Z" transform="translate(147.685 172.063)"/>
    <path id="Path_927" data-name="Path 927" class="cls-3" d="M181.24,361.885a80.63,80.63,0,0,0,17.337,50.073,80.99,80.99,0,1,0,127.321,0C336.75,398.176,181.24,352.792,181.24,361.885Z" transform="translate(147.685 112.555)"/>
    <path id="Path_928" data-name="Path 928" class="cls-2" d="M416.448,436.73a53.114,53.114,0,0,1-4.193-6.177l29.617-4.87-32.037.241a54.109,54.109,0,0,1-1.03-42.783l42.979,22.32L412.15,376.3a54,54,0,1,1,89.182,60.429,53.824,53.824,0,0,1,6.155,9.845L469.039,466.55,510.034,452.8a54,54,0,0,1-8.7,50.712,54,54,0,1,1-84.921,0,54.026,54.026,0,0,1,0-66.772Z" transform="translate(92.117 115.364)"/>
    <path id="Path_929" data-name="Path 929" class="cls-3" d="M512.894,509.741a53.785,53.785,0,0,1-11.558,33.39,54,54,0,1,1-84.921,0C409.216,533.962,512.894,503.729,512.894,509.741Z" transform="translate(92.113 75.712)"/>
    <path id="Path_930" data-name="Path 930" class="cls-1" d="M19,787.136s90.572-87.927,121.925-58.347,163.731,37.448,175.928,35.7,83.605-5.223,123.668-.872S848.1,751.432,862.907,787.136Z" transform="translate(188 22.597)"/>
    <path id="Path_931" data-name="Path 931" class="cls-4" d="M745.445,229.089H704.714a6.937,6.937,0,0,0,1.5-4.359,7.011,7.011,0,0,0-.511-2.608h18.788a6.966,6.966,0,1,0,0-13.933H612.2a6.989,6.989,0,0,0-6.967,6.966,6.84,6.84,0,0,0,.519,2.608H586.96a6.974,6.974,0,0,0,0,13.94h40.732a6.914,6.914,0,0,0-1.5,4.351,6.989,6.989,0,0,0,6.966,6.966H745.445a6.967,6.967,0,0,0,0-13.933Z" transform="translate(84.543 90.45)"/>
    <path id="Path_932" data-name="Path 932" class="cls-4" d="M989.966,362.319H949.234a6.937,6.937,0,0,0,1.541-4.359,6.86,6.86,0,0,0-.511-2.608h18.788a6.966,6.966,0,1,0,0-13.933H856.723a6.989,6.989,0,0,0-6.966,6.966,6.831,6.831,0,0,0,.511,2.608H831.48a6.974,6.974,0,0,0,0,13.94h40.732a6.913,6.913,0,0,0-1.5,4.351,6.989,6.989,0,0,0,6.966,6.966H989.966a6.966,6.966,0,0,0,0-13.933Z" transform="translate(-12.218 117.343)"/>
    <path id="Path_933" data-name="Path 933" class="cls-4" d="M523.867,308.8h-23.86a4.051,4.051,0,0,0,.9-2.548,4.157,4.157,0,0,0-.3-1.5h11.017a4.081,4.081,0,1,0,0-8.161H445.77a4.1,4.1,0,0,0-4.081,4.081,4.013,4.013,0,0,0,.308,1.5H431.011a4.081,4.081,0,1,0,0,8.161h23.86a4.051,4.051,0,0,0-.9,2.548,4.1,4.1,0,0,0,4.081,4.088h65.817a4.088,4.088,0,0,0,0-8.169Z" transform="translate(101.633 128.483)"/>
    <path id="Path_934" data-name="Path 934" class="cls-5" d="M708.038,751.6a17.874,17.874,0,0,1-1.308,4.509,32.315,32.315,0,0,0,7.974,1.841.752.752,0,0,0,.511-.075c.2-.158.173-.474.143-.752a9.987,9.987,0,0,1,.827-4.329q2.254-6.275,4.449-12.565c-2.6-1.18-7.981-.466-10.175,1.5C708.436,743.552,708.526,749.061,708.038,751.6Z" transform="translate(17.105 18.385)"/>
    <path id="Path_935" data-name="Path 935" class="cls-5" d="M758.045,760.525a1.444,1.444,0,0,0-.135.556c0,.669.887.9,1.556.962a42.59,42.59,0,0,1,9.484,1.977c.376-1.112-.15-2.307-.165-3.472,0-1.623.954-3.066,1.548-4.577,1.06-2.668.977-5.629.879-8.5-2.57.173-8.7-1.015-10.138,1.646-.8,1.5-.752,3.758-1.112,5.411A41.85,41.85,0,0,1,758.045,760.525Z" transform="translate(4.388 16.473)"/>
    <path id="Path_936" data-name="Path 936" class="cls-1" d="M729.772,611.188l-6.764.4a1.939,1.939,0,0,0-1.232.361,1.849,1.849,0,0,0-.458,1.18c-.9,6.764.684,13.67-.158,20.434-.338,2.66-1.045,5.261-1.593,7.876-.924,4.366-1.428,8.808-1.931,13.242a30.212,30.212,0,0,0-.255,6.636c.2,1.864.751,3.682.819,5.554a19.311,19.311,0,0,1-1.142,6.493,70.647,70.647,0,0,1-4.208,10.423c-1.45,2.908-3.111,5.742-3.99,8.868-1.4,4.975-.751,10.393-2.412,15.286a7.646,7.646,0,0,0-.751,3.69,4.218,4.218,0,0,0,3.479,3.074,12.355,12.355,0,0,0,4.877-.368c2.638-.564,5.441-1.217,7.3-3.171a13.361,13.361,0,0,0,2.435-4.374c1.225-3.006,2.442-6.057,3.562-9.123a34.666,34.666,0,0,1,1.729-4.246c.616-1.172,1.383-2.255,2.037-3.427a34.821,34.821,0,0,0,2.615-6.313c4.825-14.8,6.3-30.812,13.587-44.565.346-.654.391-1.5.751-2.119a21.9,21.9,0,0,1,1.007,6.921,145.478,145.478,0,0,1-.383,15.985c-.3,3.878-.751,7.748-.842,11.641,0,1.774,0,3.555.038,5.336v1.45c.06,2.533.12,5.065.368,7.583,1.06,10.4-2.217,20.516-1.037,30.9a1.8,1.8,0,0,0,.346,1.022c.5.541,1.4.248,2.082-.045a22.368,22.368,0,0,1,7.109-1.774,4.794,4.794,0,0,0,2.157-.481c1.082-.646,1.39-2.052,1.586-3.3q2.457-15.173,4.907-30.346a72.55,72.55,0,0,0,.932-7.312c.188-3.186-.045-6.388.263-9.559.428-4.509,2.255-8.793,3.622-13.076.706-2.255,1.42-4.471,2.067-6.726s1.24-4.592,1.766-6.906c.9-4.028,1.608-8.184.984-12.265s-2.773-8.109-6.4-10.078c-2.653-1.45-5.764-1.668-8.763-2-8.56-.939-17.089-3.006-25.664-2.255C732.726,611.849,731.305,611.1,729.772,611.188Z" transform="translate(17.375 50.311)"/>
    <path id="Path_937" data-name="Path 937" class="cls-1" d="M707.683,785.819a9.637,9.637,0,0,0,1.067-2.254l2.773-7.515a65.317,65.317,0,0,0,2.255-6.861,32.145,32.145,0,0,0,.917-8.507,31.676,31.676,0,0,1-8.349-1.172,12.9,12.9,0,0,0-3.171-.669,5.516,5.516,0,0,0-5.351,5.839,8.408,8.408,0,0,1,.12,1.368,4.279,4.279,0,0,1-.391,1.315l-2.961,7.214a15.835,15.835,0,0,0-1.5,5.561C692.879,786.886,703.422,791.959,707.683,785.819Z" transform="translate(20.496 13.618)"/>
    <path id="Path_938" data-name="Path 938" class="cls-1" d="M750.473,786.383a12.906,12.906,0,0,0,0,3.4,7.581,7.581,0,0,0,6.884,5.817,9.867,9.867,0,0,0,8.349-4.111,8.868,8.868,0,0,0,1.39-2.668,13.853,13.853,0,0,0,.466-2.833l1.195-12.648c.173-1.773.894-4.336,0-6.012-.751-1.42-2.578-1.886-3.983-2.42a15.67,15.67,0,0,0-7.38-1.1c-4.381.368-4.336,4.84-5,8.409Q751.1,779.267,750.473,786.383Z" transform="translate(6.264 12.4)"/>
    <path id="Path_939" data-name="Path 939" class="cls-1" d="M743.982,449.6c-2.022,2.833-4.967,4.915-6.951,7.778a14.617,14.617,0,0,0-2.563,8.905,16.681,16.681,0,0,1,0,4.855,8.635,8.635,0,0,1-1.939,3.216,27.009,27.009,0,0,1-12.347,8.206c-.579.18-1.3.571-1.157,1.157a1.2,1.2,0,0,0,.534.609l9.77,7c5.734,4.111,11.5,8.267,17.841,11.34a63.382,63.382,0,0,0,36.448,5.734,19.006,19.006,0,0,1-2.893-8.267c-.376-3.532.256-7.094.188-10.649a27.52,27.52,0,0,0-2.255-10.521c-.842-1.931-1.909-3.758-2.555-5.764a29.816,29.816,0,0,1-1.082-7.515l-.5-8.409a16.969,16.969,0,0,0-.7-4.607,11.416,11.416,0,0,0-1.789-3.171c-3.577-4.674-9.018-6.673-14.715-7.162-2.488-.21-5.531-.413-7.823.669C746.747,444.349,745.635,447.3,743.982,449.6Z" transform="translate(14.055 92.309)"/>
    <path id="Path_940" data-name="Path 940" class="cls-5" d="M746.545,491.2a5.584,5.584,0,0,1-3.525,3.277,16.623,16.623,0,0,1-4.915.752l-3.585.165a1.563,1.563,0,0,0-1.1.331,1.293,1.293,0,0,0-.316.8c-.225,1.909.887,3.69,2,5.261,3.562,4.99,7.831,9.732,13.4,12.28a22.1,22.1,0,0,0,25.476-5.14,2.255,2.255,0,0,0,.706-1.255,2.112,2.112,0,0,0-1.082-1.759c-1.187-.879-2.585-1.45-3.758-2.322a11.272,11.272,0,0,1-4.081-6.17,18.564,18.564,0,0,1-.338-7.477c-4.456-1.27-9.311-.263-13.775-1.5-1.045-.286-3.006-1.383-4.1-.752S746.89,490.129,746.545,491.2Z" transform="translate(10.56 81.045)"/>
    <path id="Path_941" data-name="Path 941" class="cls-3" d="M746.545,491.2a5.584,5.584,0,0,1-3.525,3.277,16.623,16.623,0,0,1-4.915.752l-3.585.165a1.563,1.563,0,0,0-1.1.331,1.293,1.293,0,0,0-.316.8c-.225,1.909.887,3.69,2,5.261,3.562,4.99,7.831,9.732,13.4,12.28a22.1,22.1,0,0,0,25.476-5.14,2.255,2.255,0,0,0,.706-1.255,2.112,2.112,0,0,0-1.082-1.759c-1.187-.879-2.585-1.45-3.758-2.322a11.272,11.272,0,0,1-4.081-6.17,18.564,18.564,0,0,1-.338-7.477c-4.456-1.27-9.311-.263-13.775-1.5-1.045-.286-3.006-1.383-4.1-.752S746.89,490.129,746.545,491.2Z" transform="translate(10.56 81.045)"/>
    <circle id="Ellipse_319" data-name="Ellipse 319" class="cls-5" cx="15.008" cy="15.008" r="15.008" transform="translate(753.422 549.666)"/>
    <path id="Path_942" data-name="Path 942" class="cls-2" d="M767.182,501.037a49.237,49.237,0,0,1-8.612,2.8,16.579,16.579,0,0,1-8.943-.488,31.132,31.132,0,0,1-5.539-3.156c-3.111-1.991-6.508-3.758-10.19-4.118a6.865,6.865,0,0,0-4.96,1.067,6.764,6.764,0,0,0-2.187,4.509c-.5,3.577.353,7.184,1.112,10.717,2.878,13.414,4.509,27.445,1.285,40.792-1.691,7.087.135,14.459.383,21.741a26.016,26.016,0,0,0,.984,7.4,8.94,8.94,0,0,0,4.682,5.554c2.142.9,4.569.624,6.884.436,2.758-.218,5.636-.256,8.139.9,1.774.827,3.434,2.255,5.373,2.082.992-.09,1.894-.6,2.878-.752,1.976-.331,3.87.752,5.666,1.638a35.067,35.067,0,0,0,14.279,3.615c2.533-5.959,1.225-12.663,1.5-19.133.113-2.42.473-4.825.616-7.245a81.006,81.006,0,0,0-.113-8.755l-.917-19.69c-.263-5.358,2.472-10.6,2.255-15.955a48.286,48.286,0,0,0-1.03-7.41c-.165-.827-.338-1.646-.571-2.45-1.653-5.644-6.41-9.77-10.957-13.475a2.2,2.2,0,0,0-2.022-.624Z" transform="translate(12.167 78.929)"/>
    <path id="Path_943" data-name="Path 943" class="cls-6" d="M736.361,588.213c.06,5.261-1.834,10.348-3.69,15.286-.571,1.5-1.27,3.171-2.728,3.87s-3.089.248-4.509-.308a30.342,30.342,0,0,1-3.855-1.781c-1.308-.752-2.781-1.556-4.186-1.075-1.721.586-2.255,2.728-2.487,4.509a47.692,47.692,0,0,1-7.027-.428,1.322,1.322,0,0,1-.616-.2,1.3,1.3,0,0,1-.391-.842c-.241-1.255-.489-2.5-.752-3.758-.075-.391-.361-.909-.751-.752.316-4.87-.7-9.717-1.067-14.579a38.659,38.659,0,0,1,.075-7.4,71.731,71.731,0,0,1,1.413-7.312c1.157-5.155,3.382-10.393,3.51-15.624a17.654,17.654,0,0,0-.2-3.141q-1.593-9.837-3.171-19.69c-.271-1.638-.534-3.292-.917-4.907-.286-1.2-.556-2.367-.864-3.525-.188-.706-.391-1.405-.624-2.112l6.012-16.533a30.382,30.382,0,0,1,1.653-3.96,15.5,15.5,0,0,1,6.726-6.561,6.064,6.064,0,0,0,2.255-1.5c.293-.383.473-.849.752-1.247,1.06-1.5,3.231-1.623,5.043-1.293a6.872,6.872,0,0,1,4.389,2.255,8.847,8.847,0,0,1,.962,1.954q1.8,4.374,3.622,8.74a3.312,3.312,0,0,1,1.5,3.006c0,2.164-.308,4.321-.218,6.486a1.635,1.635,0,0,0,.045.466c.271,1.946,1.646,3.585,2.112,5.539,1.789,7.478-.819,15.173-2.352,22.733-.06.3-.12.594-.173.894a68.29,68.29,0,0,0-1.2,13.324,38.091,38.091,0,0,0,.391,5.546c.248,1.616.646,3.209.827,4.84a44.765,44.765,0,0,1,0,6.809C735.655,580.007,736.316,584.1,736.361,588.213Z" transform="translate(17.903 79.628)"/>
    <path id="Path_944" data-name="Path 944" class="cls-6" d="M753.7,532.295a6.471,6.471,0,0,1,.857,3.006,2,2,0,0,1-.451,1.248,1.879,1.879,0,0,1-1.721.473,4.727,4.727,0,0,1-1.676-.752,3.884,3.884,0,0,1-1.6-1.608,4.188,4.188,0,0,1-.24-1.007l-.4-2.54a3.24,3.24,0,0,1,0-1.5c.338-1.045,1.856-2.893,3.006-1.992S753.138,531.092,753.7,532.295Z" transform="translate(6.755 71.134)"/>
    <path id="Path_945" data-name="Path 945" class="cls-6" d="M804.52,534.147c-.443-1.157-1.766-1.646-2.848-2.255a13.315,13.315,0,0,1-5.005-5.734c-1.187-2.285-2.074-4.719-3.359-6.944a2.7,2.7,0,0,0-.857-1.022,1.037,1.037,0,0,0-1.247.075,1.353,1.353,0,0,0-.278.714,16.125,16.125,0,0,0,.458,5,19.479,19.479,0,0,1-4.765,15.782c-1.556,1.721-3.487,3.231-4.321,5.4a12.708,12.708,0,0,0-.451,5.26l.519,9.589a90.634,90.634,0,0,1-3.269,28.926c-1.5,5.411-4.043,10.874-3.006,16.39.391,2.112,1.308,4.208.932,6.328a2.157,2.157,0,0,0,0,1.232,1.8,1.8,0,0,0,.751.7l5,3.262,4.509-13.354a24.674,24.674,0,0,0,1-3.495,26.713,26.713,0,0,0,.293-4.1,173.256,173.256,0,0,1,4.637-35.652,27.36,27.36,0,0,1,1.5-4.93,30.2,30.2,0,0,1,5.644-7.718c.053-1.1-.09-2.209,0-3.322a21.262,21.262,0,0,1,.819-5.727A6.886,6.886,0,0,1,804.52,534.147Z" transform="translate(-0.07 73.46)"/>
    <path id="Path_946" data-name="Path 946" class="cls-6" d="M799.031,556.08a67.869,67.869,0,0,0,.143,9.492l.752,12.58a18.09,18.09,0,0,0,.751,4.967c.6,1.713,1.714,3.216,2.292,4.945.2.586.331,1.2.526,1.8a21.107,21.107,0,0,0,.9,2.1c2.029,4.592,2.585,9.687,2.728,14.7s-.113,10.04.4,15.03a9.069,9.069,0,0,1-3.99.2,5.587,5.587,0,0,0-1.5-.2,4.741,4.741,0,0,0-1.263.361,13.009,13.009,0,0,1-10.919-.977,21.792,21.792,0,0,1-2.788-2.044A8.541,8.541,0,0,1,785.15,617a7.514,7.514,0,0,1-.864-3.652c-.173-5.1,1.5-10.063,2.638-15.03a139.693,139.693,0,0,0,2.255-14.572c.834-7.162.609-14.527,2.255-21.553a5.937,5.937,0,0,1,1.2-2.788,6.012,6.012,0,0,1,1.939-1.247C796.04,557.448,797.535,556.771,799.031,556.08Z" transform="translate(-2.163 64.002)"/>
    <path id="Path_947" data-name="Path 947" class="cls-3" d="M804.52,534.147c-.443-1.157-1.766-1.646-2.848-2.255a13.315,13.315,0,0,1-5.005-5.734c-1.187-2.285-2.074-4.719-3.359-6.944a2.7,2.7,0,0,0-.857-1.022,1.037,1.037,0,0,0-1.247.075,1.353,1.353,0,0,0-.278.714,16.125,16.125,0,0,0,.458,5,19.479,19.479,0,0,1-4.765,15.782c-1.556,1.721-3.487,3.231-4.321,5.4a12.708,12.708,0,0,0-.451,5.26l.519,9.589a90.634,90.634,0,0,1-3.269,28.926c-1.5,5.411-4.043,10.874-3.006,16.39.391,2.112,1.308,4.208.932,6.328a2.157,2.157,0,0,0,0,1.232,1.8,1.8,0,0,0,.751.7l5,3.262,4.509-13.354a24.674,24.674,0,0,0,1-3.495,26.713,26.713,0,0,0,.293-4.1,173.256,173.256,0,0,1,4.637-35.652,27.36,27.36,0,0,1,1.5-4.93,30.2,30.2,0,0,1,5.644-7.718c.053-1.1-.09-2.209,0-3.322a21.262,21.262,0,0,1,.819-5.727A6.886,6.886,0,0,1,804.52,534.147Z" transform="translate(-0.07 73.46)"/>
    <path id="Path_948" data-name="Path 948" class="cls-5" d="M801.281,642.646a2.683,2.683,0,0,1-.977,1.413c-.5.286-1.323.045-1.368-.534-.842-.113-1.5.879-2.315.947s-1.563-.752-2.36-.571c-.511.135-.992.676-1.458.436-.2-.1-.316-.308-.519-.383-.323-.105-.631.2-.962.271-.7.158-1.21-.7-1.232-1.413a4.844,4.844,0,0,0-.143-2.119.451.451,0,0,0-.218-.24c-.225-.105-.473.105-.624.308-.556.752-.714,1.8-1.278,2.578s-1.909,1.15-2.42.338a1.917,1.917,0,0,1-.105-1.36c.338-1.924,1.09-3.991,2.818-4.892,1.5-.752,3.307-.466,4.96-.12q3.449.751,6.891,1.556c.609.143,2.067.218,2.33.924S801.522,642.045,801.281,642.646Z" transform="translate(-2.4 43.907)"/>
    <path id="Path_949" data-name="Path 949" class="cls-1" d="M763.3,464.339c.752,4.051,3.066,7.62,4.922,11.31s3.337,7.883,2.33,11.881a41.346,41.346,0,0,1-1.5,4.051,38.263,38.263,0,0,0-1.548,7.2,37.838,37.838,0,0,0-.594,10.033,12.672,12.672,0,0,0,4.509,8.717l-.21-1.5a16.7,16.7,0,0,1,3.179,2.187,20.186,20.186,0,0,0,2.255-6.125l5.1,3.96c2.255,1.729,4.78,3.547,7.575,3.2l-2.255-5.193c-.624-1.443-1.247-2.878-1.984-4.269a13.421,13.421,0,0,1-1.217-2.6,11.723,11.723,0,0,1-.331-2.4,167.683,167.683,0,0,0-7.38-39.078,32.577,32.577,0,0,0-3.555-8.267,10.354,10.354,0,0,0-2.961-3.059c-1.871-1.195-4.171-1.45-6.38-1.676a19.682,19.682,0,0,0-4.652-.105,14.276,14.276,0,0,0-4.509,1.548,24.048,24.048,0,0,0-10.4,10.318,20.442,20.442,0,0,0-2.352,10.438c.293,3.833,3.945,2.089,6.41,1.135C753.856,473.657,759.718,469.96,763.3,464.339Z" transform="translate(8.509 89.739)"/>
    <path id="Path_950" data-name="Path 950" class="cls-3" d="M753.7,532.295a6.471,6.471,0,0,1,.857,3.006,2,2,0,0,1-.451,1.248,1.879,1.879,0,0,1-1.721.473,4.727,4.727,0,0,1-1.676-.752,3.884,3.884,0,0,1-1.6-1.608,4.188,4.188,0,0,1-.24-1.007l-.4-2.54a3.24,3.24,0,0,1,0-1.5c.338-1.045,1.856-2.893,3.006-1.992S753.138,531.092,753.7,532.295Z" transform="translate(6.755 71.134)"/>
    <path id="Path_951" data-name="Path 951" class="cls-6" d="M741.778,407.39,738.96,428.5l12.385-.751,4.028-20.358Z" transform="translate(23.375 169.759)"/>
    <circle id="Ellipse_320" data-name="Ellipse 320" class="cls-7" cx="0.939" cy="0.939" r="0.939" transform="translate(770.309 582.492)"/>
    <g id="Group_1" data-name="Group 1" class="cls-8" transform="translate(749.801 550.417)">
      <path id="Path_952" data-name="Path 952" d="M770.867,487.691c.128-.368.241-.752.338-1.112,1-4.006-.481-8.2-2.337-11.889s-4.141-7.252-4.915-11.31c-3.585,5.621-9.431,9.319-15.541,11.693-2.465.954-6.125,2.69-6.418-1.135a15.38,15.38,0,0,1,0-2.563,17.8,17.8,0,0,0-.676,6.125c.293,3.833,3.945,2.089,6.411,1.135,6.117-2.367,11.956-6.065,15.541-11.686.751,4.051,3.066,7.62,4.922,11.273C769.695,481.2,770.935,484.46,770.867,487.691Z" transform="translate(-741.282 -463.38)"/>
      <path id="Path_953" data-name="Path 953" d="M790.828,526.132q-2.555-1.969-5.1-3.96a20.126,20.126,0,0,1-2.255,6.132,16.533,16.533,0,0,0-3.179-2.194l.21,1.5a12.791,12.791,0,0,1-4.509-8.717,37.219,37.219,0,0,1,.586-10.033c.053-.361.113-.751.165-1.082-.353,1.5-.586,3.089-.819,4.644a37.86,37.86,0,0,0-.594,10.033,12.671,12.671,0,0,0,4.509,8.718l-.21-1.5a17.1,17.1,0,0,1,3.179,2.194,20.287,20.287,0,0,0,2.255-6.125q2.555,1.976,5.1,3.96c2.255,1.721,4.78,3.547,7.575,3.2l-1.623-3.758A15.062,15.062,0,0,1,790.828,526.132Z" transform="translate(-749.707 -474.413)"/>
    </g>
    <path id="Path_954" data-name="Path 954" class="cls-5" d="M750.094,511.81a17.73,17.73,0,0,1,4.2-4.013,1.262,1.262,0,0,1,.864-.24c.24.053.443.233.691.278a1.376,1.376,0,0,0,.812-.2l3.472-1.668a3.683,3.683,0,0,1,1.661-.481,1.217,1.217,0,0,1,1.21,1.045c0,.646-.639,1.082-1.21,1.405a32.472,32.472,0,0,0-4.87,3.4c-.751.669-1.608,1.774-1.022,2.63a2.255,2.255,0,0,0,1.909.639,15.324,15.324,0,0,0,3.758-.286c.992-.248,1.924-.691,2.923-.924a14.375,14.375,0,0,1,2.788-.278,2.254,2.254,0,0,1,1.571.338c.413.353.376,1.2-.158,1.308.751,1,.09,2.472-.894,3.224s-2.255,1.06-3.284,1.7c1.2-.428,2.623-.842,3.69-.135a.751.751,0,0,1,.338.421c.068.353-.308.624-.639.752-4.93,2.3-10.769,1.5-15.932,3.209a16.946,16.946,0,0,0-5.922,3.419c.8-.752-4.148-6.012-3.72-7.515.346-1.232,2.833-2.8,3.758-3.758Q748.163,514.057,750.094,511.81Z" transform="translate(8.265 76.573)"/>
    <path id="Path_955" data-name="Path 955" class="cls-3" d="M740.478,539.932a4.013,4.013,0,0,0,.263,2.014,7.351,7.351,0,0,1-1.007,5.028,21.8,21.8,0,0,1-3.517,4.8,46.37,46.37,0,0,1-5.306,4.7,114.207,114.207,0,0,1-11.573,7.981,9.635,9.635,0,0,1-3.344,1.466,10.017,10.017,0,0,1-2.8-.045,16.186,16.186,0,0,1-3.675-.752,17.655,17.655,0,0,0-.2-3.141q-1.593-9.837-3.171-19.69c-.271-1.638-.534-3.292-.917-4.907-.286-1.2-.556-2.367-.864-3.525v-.083c.752-1.894,2.953-3.1,3.171-5.11,3.179-.3,6.162-.654,9.349-.947a21.042,21.042,0,0,1-.609,8.9,1.165,1.165,0,0,0,1.165-.714c.233-.428.308-.924.5-1.375.751-1.713,2.953-2.119,4.509-3.111,2.736-1.7,3.915-5.381,6.861-6.658a1.074,1.074,0,0,1,.691-.12c.646.173.751,1.308,1.45,1.263a.992.992,0,0,0,.556-.316c1.2-1.09,2.705-1.992,3.9-3.074.165.323.323.646.481.969q2.51,5.08,5.013,10.168a7.233,7.233,0,0,0,2.683,3.427C743.581,538.587,740.951,538.407,740.478,539.932Z" transform="translate(17.694 72.342)"/>
    <path id="Path_956" data-name="Path 956" class="cls-6" d="M705.744,526.565c-.21,2.022-2.427,3.224-3.171,5.118a9.167,9.167,0,0,0-.368,3.111,85.861,85.861,0,0,1-1.127,8.815,17.877,17.877,0,0,0,.631,8.778c.646,1.638,1.683,3.126,2.127,4.832a16.828,16.828,0,0,0,.857,3.427c1.165,2.255,4.133,2.841,6.681,3.119a10.018,10.018,0,0,0,2.8.045,9.769,9.769,0,0,0,3.352-1.466,114.923,114.923,0,0,0,11.566-7.981c3.434-2.683,6.764-5.659,8.823-9.506a7.4,7.4,0,0,0,1.015-5.028,3.856,3.856,0,0,1-.263-2.014c.473-1.5,3.1-1.345,3.667-2.841a7.118,7.118,0,0,1-2.675-3.419l-5.494-11.145c-1.2,1.09-2.705,1.991-3.9,3.081a1.038,1.038,0,0,1-.564.316c-.669.045-.8-1.09-1.45-1.263a1.1,1.1,0,0,0-.684.113c-2.953,1.285-4.133,4.967-6.869,6.666-1.593.992-3.758,1.4-4.509,3.111-.2.443-.271.947-.5,1.375a1.165,1.165,0,0,1-1.165.751,20.953,20.953,0,0,0,.609-8.9C711.913,525.919,708.93,526.272,705.744,526.565Z" transform="translate(18.573 72.866)"/>
    <path id="Path_957" data-name="Path 957" class="cls-6" d="M801.516,641.954c.2-.075.406-.158.609-.218a2.5,2.5,0,0,0,.676-2.705c-.263-.706-1.721-.752-2.33-.924q-3.442-.827-6.891-1.548c-1.653-.353-3.464-.661-4.96.113-.556.293-1.015,1.27-1.39,1.766l.579.5c.624.519,1.263,1.03,1.924,1.5a.474.474,0,0,1,.5-.158.45.45,0,0,1,.218.24,1.5,1.5,0,0,1,.158.474A12.971,12.971,0,0,0,801.516,641.954Z" transform="translate(-2.898 44.096)"/>
    <path id="Path_958" data-name="Path 958" class="cls-1" d="M1095.66,458.533v64.209c0,1.909-3.577,3.464-8,3.464h-169.5c-4.426,0-8.011-1.556-8.011-3.464V458.533c0-1.916,3.585-3.863,8.011-3.863h169.5C1092.09,454.67,1095.66,456.616,1095.66,458.533Z" transform="translate(-33.443 89.202)"/>
    <rect id="Rectangle_1529" data-name="Rectangle 1529" class="cls-2" width="88.287" height="3.119" transform="translate(958.126 566.823)"/>
    <rect id="Rectangle_1530" data-name="Rectangle 1530" class="cls-9" width="88.287" height="3.119" transform="translate(958.126 574.413)"/>
    <rect id="Rectangle_1531" data-name="Rectangle 1531" class="cls-9" width="88.287" height="3.119" transform="translate(958.126 582.011)"/>
    <rect id="Rectangle_1532" data-name="Rectangle 1532" class="cls-9" width="88.287" height="3.119" transform="translate(958.126 589.609)"/>
    <path id="Path_959" data-name="Path 959" class="cls-9" d="M952.124,476.09a20.929,20.929,0,0,0-11.536,38.4v-3.547a4.764,4.764,0,0,1,4.186-4.712,8.267,8.267,0,0,0,14.564,0,4.772,4.772,0,0,1,4.193,4.712v3.637a20.937,20.937,0,0,0-11.408-38.492Zm9.206,25.551a1.293,1.293,0,0,1-.278.361,1.2,1.2,0,0,1-.609.2,3.933,3.933,0,0,1-.421,0,8.3,8.3,0,0,1-16.27-2.36,8.2,8.2,0,0,1,1.082-4.088.937.937,0,0,1-.09-.06c-1.045-.864-.751-3.119.271-3.84a5.7,5.7,0,0,1,1.721-.631,7.6,7.6,0,0,0,4.359-3.329,7.091,7.091,0,0,1-.045,1.263,1.841,1.841,0,0,1,2.63-.09,5.011,5.011,0,0,0,.752.842,2.089,2.089,0,0,0,.932.263l2.082.271a3.006,3.006,0,0,1,3.164,2.255,20.824,20.824,0,0,1,1.368,4.411,7.057,7.057,0,0,1-.646,4.539Z" transform="translate(-38.668 83.879)"/>
    <path id="Path_960" data-name="Path 960" class="cls-1" d="M1095.66,218.853v64.216c0,1.909-3.577,3.464-8,3.464h-169.5c-4.426,0-8.011-1.556-8.011-3.464V218.853c0-1.909,3.585-3.863,8.011-3.863h169.5C1092.09,215,1095.66,216.944,1095.66,218.853Z" transform="translate(-33.443 148.76)"/>
    <rect id="Rectangle_1533" data-name="Rectangle 1533" class="cls-2" width="88.287" height="3.119" transform="translate(958.126 386.701)"/>
    <rect id="Rectangle_1534" data-name="Rectangle 1534" class="cls-9" width="88.287" height="3.119" transform="translate(958.126 394.299)"/>
    <rect id="Rectangle_1535" data-name="Rectangle 1535" class="cls-9" width="88.287" height="3.119" transform="translate(958.126 401.897)"/>
    <rect id="Rectangle_1536" data-name="Rectangle 1536" class="cls-9" width="88.287" height="3.119" transform="translate(958.126 409.487)"/>
    <path id="Path_961" data-name="Path 961" class="cls-9" d="M952.124,236.42a20.93,20.93,0,0,0-11.536,38.4v-3.547a4.757,4.757,0,0,1,4.186-4.712,8.267,8.267,0,0,0,14.564,0,4.764,4.764,0,0,1,4.193,4.712v3.63a20.93,20.93,0,0,0-11.408-38.485Zm9.206,25.551a1.106,1.106,0,0,1-.278.361,1.135,1.135,0,0,1-.609.2,3.941,3.941,0,0,1-.421,0,8.3,8.3,0,0,1-16.27-2.352,8.176,8.176,0,0,1,1.082-4.088l-.09-.06c-1.045-.872-.752-3.119.271-3.84a5.507,5.507,0,0,1,1.721-.631,7.606,7.606,0,0,0,4.359-3.337,7.152,7.152,0,0,1-.045,1.27,1.849,1.849,0,0,1,2.63-.1,4.736,4.736,0,0,0,.751.842,2.194,2.194,0,0,0,.932.271l2.082.263a4.028,4.028,0,0,1,2.375.857,3.928,3.928,0,0,1,.789,1.405,21.043,21.043,0,0,1,1.368,4.419,7.035,7.035,0,0,1-.646,4.517Z" transform="translate(-38.668 143.435)"/>
    <path id="Path_962" data-name="Path 962" class="cls-1" d="M983.65,338.193v64.216c0,1.909-3.585,3.457-8.011,3.457H806.114c-4.419,0-8-1.548-8-3.457V338.193c0-1.916,3.585-3.863,8-3.863h169.5C980.043,334.33,983.65,336.276,983.65,338.193Z" transform="translate(-5.602 119.105)"/>
    <rect id="Rectangle_1537" data-name="Rectangle 1537" class="cls-2" width="88.287" height="3.119" transform="translate(873.919 476.386)"/>
    <path id="Path_963" data-name="Path 963" class="cls-9" d="M840.078,355.75a20.937,20.937,0,0,0-11.543,38.4v-1.39a4.757,4.757,0,0,1,4.186-4.712,8.312,8.312,0,0,0,14.572,0,4.757,4.757,0,0,1,4.186,4.712v1.5a20.93,20.93,0,0,0-11.4-38.515Zm8.206,26.543a8.267,8.267,0,1,1-16.533,0,9.1,9.1,0,0,1,4.765-12.167,2.766,2.766,0,0,1,2.33-4.269h.2a2.758,2.758,0,0,0-2.2,4.126h.083a2.654,2.654,0,0,1-.053-.549,2.705,2.705,0,0,1,.518-1.608,2.758,2.758,0,0,1,2.645-1.954h.2a2.75,2.75,0,0,0-2.112,1.233,2.765,2.765,0,0,1,4.291,2.315,2.061,2.061,0,0,1,0,.308,9.1,9.1,0,0,1,5.922,12.565Z" transform="translate(-10.828 113.782)"/>
    <rect id="Rectangle_1538" data-name="Rectangle 1538" class="cls-9" width="88.287" height="3.119" transform="translate(873.919 483.984)"/>
    <rect id="Rectangle_1539" data-name="Rectangle 1539" class="cls-9" width="88.287" height="3.119" transform="translate(873.919 491.574)"/>
    <rect id="Rectangle_1540" data-name="Rectangle 1540" class="cls-9" width="88.287" height="3.119" transform="translate(873.919 499.172)"/>
  </g>
</svg>
