<svg xmlns="http://www.w3.org/2000/svg" width="10" height="10.2" viewBox="0 0 10 10.2">
  <defs>
    <style>
      .google-icon-cls-1 {
        fill: #51596b;
        fill-rule: evenodd;
      }
    </style>
  </defs>
  <path id="Path_990" data-name="Path 990" class="google-icon-cls-1" d="M5.1,4.4H9.9c0,.3.1.5.1.8a4.7,4.7,0,0,1-4.9,5A5.1,5.1,0,0,1,5.1,0,4.938,4.938,0,0,1,8.5,1.3L7.1,2.7a2.666,2.666,0,0,0-2-.8A3.222,3.222,0,0,0,1.9,5.1,3.159,3.159,0,0,0,5.1,8.3,2.724,2.724,0,0,0,8,6.1H5.1Z"/>
</svg>
