<svg xmlns="http://www.w3.org/2000/svg" width="791.385" height="505.927" viewBox="0 0 791.385 505.927">
  <defs>
    <style>
      .cls-1, .cls-9 {
        fill: #d1b6bc;
      }

      .cls-2 {
        fill: #d0cde1;
      }

      .cls-3 {
        fill: #bca4a9;
      }

      .cls-4 {
        fill: #3f3d56;
      }

      .cls-5 {
        fill: #887989;
      }

      .cls-6 {
        fill: #a0616a;
      }

      .cls-7 {
        fill: #2f2e41;
      }

      .cls-8 {
        fill: #454b69;
      }

      .cls-9 {
        opacity: 0.1;
      }
    </style>
  </defs>
  <g id="Group_18" data-name="Group 18" transform="translate(-277 -272.073)">
    <path id="Path_974" data-name="Path 974" class="cls-1" d="M117.04,611.617l46.674-67.061-46.7,74.356-.027,7.63q-4.993-.042-9.884-.325c-.015-1.732,3.952-97.054,3.784-98.779.23-.065.359-9.015.451-9.407L62.578,444.748,111.391,511.1l.146,1.961,2.9-74.059L72.517,363.159l42.246,62.826c.016-1.008,2-153.067,2.019-154.005.012.5.923,121.009.929,121.517L157.8,344.989,117.673,403.92l-.2,66.282,37.2-64.1c-46.425,93.473-36.151,60.764-37.337,110.7l54.035-89.248L117.285,529.661Z" transform="translate(214.669 137.03)"/>
    <path id="Path_975" data-name="Path 975" class="cls-2" d="M1098.843,695.115l19.45-27.946-19.46,30.986-.011,3.18q-2.081-.018-4.119-.135c-.006-.722,1.647-40.445,1.577-41.163.1-.027.15-3.757.188-3.92l-20.317-30.538,20.342,27.648.061.817,1.207-30.862-17.467-31.6,17.6,26.181c.007-.42.833-63.787.841-64.178.005.208.384,50.427.387,50.639l16.705-20.214-16.723,24.557-.085,27.621,15.5-26.71c-19.346,38.953-15.065,25.322-15.559,46.13l22.518-37.192-22.537,42.55Z" transform="translate(-53.098 62.636)"/>
    <ellipse id="Ellipse_324" data-name="Ellipse 324" class="cls-3" cx="394.399" cy="15.452" rx="394.399" ry="15.452" transform="translate(277 747.096)"/>
    <rect id="Rectangle_1547" data-name="Rectangle 1547" class="cls-4" width="450.321" height="268.478" transform="translate(412.391 484.506)"/>
    <path id="Path_976" data-name="Path 976" class="cls-1" d="M357.689,374.581A107.69,107.69,0,0,1,250.024,480.517c-1.266,0-2.524-.022-3.782-.066V374.581Z" transform="translate(166.149 109.924)"/>
    <path id="Path_977" data-name="Path 977" class="cls-1" d="M566.8,734.086h-42.83a22.817,22.817,0,0,1,42.83,0Z" transform="translate(92.777 18.897)"/>
    <path id="Path_978" data-name="Path 978" class="cls-1" d="M842.782,550.721v90.432a45.27,45.27,0,0,1,0-90.432Z" transform="translate(19.929 63.391)"/>
    <rect id="Rectangle_1548" data-name="Rectangle 1548" class="cls-5" width="310.62" height="26.535" rx="13.268" transform="translate(482.631 582.063)"/>
    <rect id="Rectangle_1549" data-name="Rectangle 1549" class="cls-5" width="310.62" height="26.535" rx="13.268" transform="translate(482.631 634.354)"/>
    <rect id="Rectangle_1550" data-name="Rectangle 1550" class="cls-5" width="108.904" height="26.535" rx="13.268" transform="translate(684.347 686.644)"/>
    <path id="Path_979" data-name="Path 979" class="cls-6" d="M950.354,238.664s12.383,4.816,13.071,20.638-3.44,59.851-3.44,59.851,15.135,22.014,3.44,28.205-13.071-24.766-13.071-24.766L936.6,257.238S944.85,237.976,950.354,238.664Z" transform="translate(-16.23 145.836)"/>
    <path id="Path_980" data-name="Path 980" class="cls-6" d="M772.107,275.4s-29.581,19.262-30.957,4.128,8.943-74.3,8.943-74.3,1.376-25.454,15.823-19.262-4.128,27.518-4.128,27.518l2.064,48.156,13.759-.688Z" transform="translate(35.437 160.01)"/>
    <path id="Path_981" data-name="Path 981" class="cls-7" d="M816.837,327.325s-90.808-33.709-85.992,5.5,28.205,88.744,28.205,88.744l8.255,13.071h17.2L773.5,363.786S812.709,385.8,824.4,382.36c0,0,15.135,101.127,20.638,108.694s15.135,99.063,15.135,99.063l8.943,11.007h17.2V446.338S915.9,350.027,893.2,345.211,816.837,327.325,816.837,327.325Z" transform="translate(38.174 125.968)"/>
    <path id="Path_982" data-name="Path 982" class="cls-7" d="M758.79,464.65s-4.128-7.567-11.007,0-23.39,16.511-23.39,16.511-35.773,8.255-6.879,15.135,32.333,0,32.333,0,4.816,1.376,8.943,2.752,30.957-3.44,30.957-7.568-9.108-28.8-12.809-25.061S758.79,464.65,758.79,464.65Z" transform="translate(44.625 87.018)"/>
    <path id="Path_983" data-name="Path 983" class="cls-7" d="M905.1,692.715s-10.143-8.353-12.53-5.967-14.917,18.5-14.917,18.5-33.413,25.657-2.983,29.833,28.64-7.16,28.64-7.16h9.547c1.193,0,17.3-7.16,16.707-10.143s-7.757-27.31-10.143-25.589S905.1,692.715,905.1,692.715Z" transform="translate(3.508 27.569)"/>
    <circle id="Ellipse_325" data-name="Ellipse 325" class="cls-6" cx="23.39" cy="23.39" r="23.39" transform="translate(793.097 311.578)"/>
    <path id="Path_984" data-name="Path 984" class="cls-6" d="M812.672,167.615s17.886,15.135,30.269,15.135-17.886,28.206-17.886,28.206l-26.83-24.078Z" transform="translate(20.325 164.601)"/>
    <path id="Path_985" data-name="Path 985" class="cls-8" d="M812.759,211.156l-.536-5.42s13.607-24.162,17.734-26.225a17.078,17.078,0,0,1,6.879-2.064S850.6,163,865.73,170.568s50.907,55.723,50.907,55.723-25.454,2.064-22.014,22.014c0,0,25.454,65.354,18.574,66.042s-27.518-4.128-48.844,5.5-30.957,3.44-30.957,3.44L822.39,287.517s-20.638-11.695-19.95-22.014l-29.925,13.415,2.752-25.454,18.23-20.982S790.058,229.73,812.759,211.156Z" transform="translate(27.117 164.4)"/>
    <path id="Path_986" data-name="Path 986" class="cls-7" d="M761.974,162.048a8.636,8.636,0,0,1-3.4,2.313A2.963,2.963,0,0,1,755.036,163l.989-1.287-2.965-1.842,1.292-1.516-2.388-2.593,1.885-1.5L750.26,151.7c4.651-7.59,9.681-15.274,17.025-20.306s17.6-6.819,25.127-2.06c3.906,2.471,6.667,6.392,8.88,10.45,4.449,8.16,8.371,16.115,8.95,25.391-2.795-2.722-6.875-4.255-9.67-6.977a20.945,20.945,0,0,0-4.172-3.415c-2.923-1.648-6.421-1.794-9.693-2.538a14.563,14.563,0,0,1-6.619-3.639c-2.477-2.109-2.577-1.294-5.078,1.081Q768.5,155.87,761.974,162.048Z" transform="translate(32.996 175.449)"/>
    <path id="Path_988" data-name="Path 988" class="cls-9" d="M745.445,229.089H704.714a6.937,6.937,0,0,0,1.5-4.359,7.011,7.011,0,0,0-.511-2.608h18.788a6.966,6.966,0,1,0,0-13.933H612.2a6.989,6.989,0,0,0-6.967,6.966,6.84,6.84,0,0,0,.519,2.608H586.96a6.974,6.974,0,0,0,0,13.94h40.732a6.914,6.914,0,0,0-1.5,4.351,6.989,6.989,0,0,0,6.966,6.966H745.445a6.967,6.967,0,0,0,0-13.933Z" transform="translate(-238.457 102.45)"/>
    <path id="Path_989" data-name="Path 989" class="cls-9" d="M523.867,308.8h-23.86a4.051,4.051,0,0,0,.9-2.548,4.157,4.157,0,0,0-.3-1.5h11.017a4.081,4.081,0,1,0,0-8.161H445.77a4.1,4.1,0,0,0-4.081,4.081,4.013,4.013,0,0,0,.308,1.5H431.011a4.081,4.081,0,1,0,0,8.161h23.86a4.051,4.051,0,0,0-.9,2.548,4.1,4.1,0,0,0,4.081,4.088h65.817a4.088,4.088,0,0,0,0-8.169Z" transform="translate(408.633 -24.517)"/>
  </g>
</svg>
